<svg width="300" height="49" viewBox="0 0 300 49" fill="none" xmlns="http://www.w3.org/2000/svg">
<path d="M10.4083 23.6701C12.034 23.6701 13.4039 23.8253 14.5182 24.1359C15.6507 24.4281 16.564 24.9396 17.2581 25.6702C17.9522 26.3826 18.4545 27.3689 18.765 28.6293C19.0755 29.8897 19.2308 31.4788 19.2308 33.3967C19.2308 35.3146 19.0755 36.9038 18.765 38.1641C18.4545 39.4245 17.9522 40.42 17.2581 41.1506C16.564 41.863 15.6507 42.3744 14.5182 42.685C13.4039 42.9772 12.034 43.1234 10.4083 43.1234C8.83745 43.1234 7.39444 43.096 6.07928 43.0412C4.76413 42.9864 3.51291 42.9224 2.32563 42.8494L4.73673 38.6299C5.37604 38.703 6.17975 38.7578 7.14784 38.7943C8.13421 38.8126 9.22103 38.8217 10.4083 38.8217C11.0842 38.8217 11.6047 38.6756 11.9701 38.3833C12.3354 38.0911 12.5911 37.5522 12.7372 36.7668C12.8834 35.9814 12.9564 34.858 12.9564 33.3967C12.9564 31.9354 12.8834 30.8121 12.7372 30.0266C12.5911 29.2412 12.3354 28.7024 11.9701 28.4101C11.6047 28.1179 11.0842 27.9717 10.4083 27.9717C9.2941 27.9717 8.30773 27.9717 7.44923 27.9717C6.609 27.9717 5.78703 27.9626 4.98333 27.9443L2.32563 23.9441C3.53118 23.871 4.77327 23.8071 6.05189 23.7523C7.34877 23.6975 8.80092 23.6701 10.4083 23.6701ZM8.2712 23.9441V42.8494H2.32563V23.9441H8.2712ZM29.5649 23.6701C31.428 23.6701 32.9441 23.8436 34.1131 24.1907C35.2822 24.5377 36.1407 25.1314 36.6886 25.9716C37.2549 26.7936 37.538 27.9443 37.538 29.4239C37.538 30.1728 37.4193 30.876 37.1818 31.5336C36.9626 32.1729 36.5699 32.7026 36.0037 33.1227C35.4557 33.5428 34.6885 33.8077 33.7022 33.9173V34.0817C34.0492 34.1182 34.4328 34.2278 34.8529 34.4105C35.273 34.5749 35.6658 34.8671 36.0311 35.2872C36.3964 35.6891 36.6521 36.2736 36.7982 37.0408L38.2778 42.8494H32.0582L30.8253 37.2326C30.7157 36.7029 30.5421 36.3558 30.3047 36.1914C30.0855 36.027 29.7202 35.9448 29.2087 35.9448C27.8388 35.9266 26.7154 35.9174 25.8387 35.9174C24.9802 35.9174 24.2495 35.9083 23.6467 35.89C23.044 35.8718 22.4412 35.8444 21.8384 35.8078L21.9206 31.7528H29.4279C29.9942 31.7528 30.4325 31.698 30.7431 31.5884C31.0536 31.4788 31.2636 31.287 31.3732 31.013C31.5011 30.7208 31.565 30.3189 31.565 29.8075C31.565 29.2777 31.5011 28.8759 31.3732 28.6019C31.2636 28.3279 31.0536 28.1361 30.7431 28.0265C30.4325 27.9169 29.9942 27.8621 29.4279 27.8621C27.5283 27.8621 25.93 27.8713 24.6331 27.8895C23.3362 27.9078 22.4503 27.9443 21.9754 27.9991L21.537 23.9441C22.3772 23.8527 23.1627 23.7888 23.8933 23.7523C24.6422 23.7157 25.4551 23.6975 26.3318 23.6975C27.2269 23.6792 28.3046 23.6701 29.5649 23.6701ZM27.373 23.9441V42.8494H21.537V23.9441H27.373ZM50.6835 23.9441C51.1584 23.9441 51.5786 24.0811 51.9439 24.3551C52.3092 24.629 52.5558 25.0035 52.6836 25.4784L57.5881 42.8494H51.5329L48.6834 30.5472C48.6103 30.2002 48.5464 29.844 48.4916 29.4787C48.4368 29.0951 48.3911 28.7298 48.3546 28.3827H47.6148C47.5783 28.7298 47.5326 29.0951 47.4778 29.4787C47.423 29.844 47.3591 30.2002 47.2861 30.5472L44.4366 42.8494H38.3814L43.2858 25.4784C43.4137 25.0035 43.6603 24.629 44.0256 24.3551C44.3909 24.0811 44.811 23.9441 45.2859 23.9441H50.6835ZM53.0124 34.6023V38.7669H42.957V34.6023H53.0124ZM66.8984 23.5605C67.903 23.5605 68.7798 23.5879 69.5287 23.6427C70.2958 23.6975 70.9991 23.7797 71.6384 23.8893C72.296 23.9989 72.9535 24.1541 73.6111 24.3551L73.1727 28.6293C72.4786 28.611 71.8119 28.6019 71.1726 28.6019C70.5516 28.6019 69.9031 28.6019 69.2273 28.6019C68.5514 28.5836 67.7843 28.5745 66.9258 28.5745C66.3961 28.5745 65.9577 28.6476 65.6106 28.7937C65.2636 28.9216 64.9896 29.1681 64.7886 29.5335C64.5877 29.8805 64.4416 30.3737 64.3503 31.013C64.2772 31.6341 64.2407 32.4286 64.2407 33.3967C64.2407 34.6753 64.3137 35.6617 64.4599 36.3558C64.606 37.0317 64.8526 37.5066 65.1996 37.7806C65.5467 38.0363 66.0307 38.1641 66.6518 38.1641C67.0536 38.1641 67.4189 38.155 67.7477 38.1367C68.0948 38.1002 68.4053 38.0545 68.6793 37.9997C68.9533 37.9449 69.1725 37.8993 69.3369 37.8628L69.9123 40.3561C69.6931 40.7214 69.3277 41.1324 68.8163 41.589C68.3231 42.0457 67.6929 42.4384 66.9258 42.7672C66.1586 43.0777 65.2727 43.233 64.2681 43.233C62.8251 43.233 61.6378 42.9133 60.7062 42.274C59.7746 41.6164 59.0897 40.5661 58.6513 39.1231C58.2129 37.6801 57.9937 35.7713 57.9937 33.3967C57.9937 30.9673 58.2768 29.0403 58.8431 27.6155C59.4276 26.1725 60.3683 25.1405 61.6652 24.5195C62.9803 23.8801 64.7247 23.5605 66.8984 23.5605ZM74.4057 31.972V42.8494H70.0218L69.2547 39.9177L68.7067 38.9039V31.972H74.4057ZM85.0904 23.5605C86.7161 23.5605 88.086 23.7157 89.2003 24.0263C90.3328 24.3185 91.2461 24.83 91.9402 25.5606C92.6343 26.2913 93.1366 27.2959 93.4471 28.5745C93.7576 29.8349 93.9129 31.4423 93.9129 33.3967C93.9129 35.3329 93.7576 36.9403 93.4471 38.2189C93.1366 39.4976 92.6343 40.5022 91.9402 41.2328C91.2461 41.9635 90.3328 42.484 89.2003 42.7946C88.086 43.0868 86.7161 43.233 85.0904 43.233C83.483 43.233 82.1131 43.0868 80.9806 42.7946C79.8664 42.484 78.9622 41.9635 78.2681 41.2328C77.574 40.5022 77.0717 39.4976 76.7611 38.2189C76.4506 36.9403 76.2954 35.3329 76.2954 33.3967C76.2954 31.4423 76.4506 29.8349 76.7611 28.5745C77.0717 27.2959 77.574 26.2913 78.2681 25.5606C78.9622 24.83 79.8664 24.3185 80.9806 24.0263C82.1131 23.7157 83.483 23.5605 85.0904 23.5605ZM85.0904 27.9717C84.4146 27.9717 83.894 28.1179 83.5287 28.4101C83.1634 28.7024 82.9076 29.2412 82.7615 30.0266C82.6154 30.8121 82.5423 31.9354 82.5423 33.3967C82.5423 34.858 82.6154 35.9814 82.7615 36.7668C82.9076 37.5522 83.1634 38.0911 83.5287 38.3833C83.894 38.6756 84.4146 38.8217 85.0904 38.8217C85.7663 38.8217 86.2868 38.6756 86.6522 38.3833C87.0175 38.0911 87.2732 37.5522 87.4193 36.7668C87.5655 35.9814 87.6385 34.858 87.6385 33.3967C87.6385 31.9354 87.5655 30.8121 87.4193 30.0266C87.2732 29.2412 87.0175 28.7024 86.6522 28.4101C86.2868 28.1179 85.7663 27.9717 85.0904 27.9717ZM113.614 23.9441V40.7944C113.614 42.1644 112.929 42.8494 111.559 42.8494H109.285C108.664 42.8494 108.198 42.7032 107.887 42.411C107.595 42.1187 107.294 41.6895 106.983 41.1232L102.873 34.6297C102.617 34.1548 102.38 33.6433 102.161 33.0953C101.96 32.5291 101.777 31.9628 101.613 31.3966H101.421C101.512 31.9628 101.576 32.5474 101.613 33.1501C101.668 33.7346 101.695 34.3009 101.695 34.8489V42.8494H96.2153V25.999C96.2153 24.629 96.9002 23.9441 98.2702 23.9441H100.544C101.165 23.9441 101.622 24.0902 101.914 24.3825C102.207 24.6747 102.517 25.104 102.846 25.6702L106.791 31.8624C107.047 32.319 107.294 32.8213 107.531 33.3693C107.787 33.9173 108.024 34.4927 108.243 35.0955H108.435C108.362 34.5109 108.298 33.9356 108.243 33.3693C108.207 32.8031 108.189 32.2368 108.189 31.6706L108.161 23.9441H113.614ZM143.019 23.9441C144.353 23.9441 145.047 24.629 145.102 25.999L145.759 42.8494H140.416L139.841 28.3827H139.43L137.567 38.0271C137.384 39.2327 136.635 39.8355 135.32 39.8355H132.252C130.955 39.8355 130.197 39.2327 129.977 38.0271L128.087 28.3827H127.676L127.21 42.8494H121.867L122.525 25.999C122.58 24.629 123.274 23.9441 124.607 23.9441H129.731C131.009 23.9441 131.758 24.556 131.978 25.7798L133.348 33.2871C133.421 33.7438 133.475 34.2096 133.512 34.6845C133.567 35.1594 133.612 35.6343 133.649 36.1092H133.895C133.95 35.6343 133.996 35.1594 134.032 34.6845C134.087 34.2096 134.151 33.7438 134.224 33.2871L135.512 25.7798C135.731 24.556 136.489 23.9441 137.786 23.9441H143.019ZM156.531 23.5605C158.157 23.5605 159.527 23.7157 160.641 24.0263C161.773 24.3185 162.687 24.83 163.381 25.5606C164.075 26.2913 164.577 27.2959 164.888 28.5745C165.198 29.8349 165.354 31.4423 165.354 33.3967C165.354 35.3329 165.198 36.9403 164.888 38.2189C164.577 39.4976 164.075 40.5022 163.381 41.2328C162.687 41.9635 161.773 42.484 160.641 42.7946C159.527 43.0868 158.157 43.233 156.531 43.233C154.924 43.233 153.554 43.0868 152.421 42.7946C151.307 42.484 150.403 41.9635 149.709 41.2328C149.015 40.5022 148.512 39.4976 148.202 38.2189C147.891 36.9403 147.736 35.3329 147.736 33.3967C147.736 31.4423 147.891 29.8349 148.202 28.5745C148.512 27.2959 149.015 26.2913 149.709 25.5606C150.403 24.83 151.307 24.3185 152.421 24.0263C153.554 23.7157 154.924 23.5605 156.531 23.5605ZM156.531 27.9717C155.855 27.9717 155.335 28.1179 154.969 28.4101C154.604 28.7024 154.348 29.2412 154.202 30.0266C154.056 30.8121 153.983 31.9354 153.983 33.3967C153.983 34.858 154.056 35.9814 154.202 36.7668C154.348 37.5522 154.604 38.0911 154.969 38.3833C155.335 38.6756 155.855 38.8217 156.531 38.8217C157.207 38.8217 157.728 38.6756 158.093 38.3833C158.458 38.0911 158.714 37.5522 158.86 36.7668C159.006 35.9814 159.079 34.858 159.079 33.3967C159.079 31.9354 159.006 30.8121 158.86 30.0266C158.714 29.2412 158.458 28.7024 158.093 28.4101C157.728 28.1179 157.207 27.9717 156.531 27.9717ZM185.054 23.9441V40.7944C185.054 42.1644 184.369 42.8494 182.999 42.8494H180.725C180.104 42.8494 179.638 42.7032 179.328 42.411C179.036 42.1187 178.734 41.6895 178.424 41.1232L174.314 34.6297C174.058 34.1548 173.821 33.6433 173.602 33.0953C173.401 32.5291 173.218 31.9628 173.054 31.3966H172.862C172.953 31.9628 173.017 32.5474 173.054 33.1501C173.108 33.7346 173.136 34.3009 173.136 34.8489V42.8494H167.656V25.999C167.656 24.629 168.341 23.9441 169.711 23.9441H171.985C172.606 23.9441 173.063 24.0902 173.355 24.3825C173.647 24.6747 173.958 25.104 174.286 25.6702L178.232 31.8624C178.488 32.319 178.734 32.8213 178.972 33.3693C179.227 33.9173 179.465 34.4927 179.684 35.0955H179.876C179.803 34.5109 179.739 33.9356 179.684 33.3693C179.648 32.8031 179.629 32.2368 179.629 31.6706L179.602 23.9441H185.054ZM192.186 23.8345C193.282 23.8345 194.405 23.8436 195.556 23.8619C196.725 23.8619 197.866 23.8893 198.981 23.9441C200.095 23.9806 201.109 24.0628 202.022 24.1907L201.748 28.3827H194.816C194.469 28.3827 194.195 28.474 193.994 28.6567C193.793 28.8394 193.693 29.0768 193.693 29.3691V37.4244C193.693 37.7166 193.793 37.9541 193.994 38.1367C194.195 38.3194 194.469 38.4107 194.816 38.4107H201.748L202.022 42.6028C201.109 42.7124 200.095 42.7946 198.981 42.8494C197.866 42.9042 196.725 42.9316 195.556 42.9316C194.405 42.9498 193.282 42.959 192.186 42.959C190.889 42.959 189.82 42.5662 188.98 41.7808C188.158 40.9771 187.747 39.9359 187.747 38.6573V28.1361C187.747 26.8575 188.158 25.8255 188.98 25.04C189.82 24.2363 190.889 23.8345 192.186 23.8345ZM188.24 31.2048H200.762V35.1503H188.24V31.2048ZM220.974 23.9441L214.59 37.2326H208.891L202.507 23.9441H208.617L211.001 29.8897C211.165 30.2915 211.284 30.7299 211.357 31.2048C211.43 31.6797 211.503 32.1272 211.576 32.5474H211.932C212.005 32.1272 212.078 31.6797 212.151 31.2048C212.243 30.7116 212.361 30.2641 212.508 29.8623L214.864 23.9441H220.974ZM214.727 33.8625V42.8494H208.781V33.8625H214.727Z" fill="white"/>
<path d="M7.11245 7.16984C8.31509 7.16984 9.25737 7.29382 9.93928 7.54179C10.6212 7.78976 11.1047 8.2175 11.3899 8.82502C11.6874 9.43254 11.8362 10.2818 11.8362 11.3729C11.8362 12.4639 11.6936 13.3132 11.4085 13.9207C11.1357 14.5283 10.6832 14.956 10.0509 15.204C9.41855 15.4395 8.56306 15.5573 7.4844 15.5573C6.91408 15.5573 6.35615 15.5325 5.81063 15.4829C5.2651 15.4333 4.75677 15.3714 4.28563 15.297C3.81449 15.2226 3.41155 15.1482 3.07679 15.0738C2.74203 14.987 2.51266 14.9064 2.38868 14.832L2.44447 13.4186C3.17598 13.4186 3.93228 13.4186 4.71337 13.4186C5.50687 13.4186 6.28796 13.4186 7.05666 13.4186C7.55259 13.4062 7.93694 13.3442 8.20971 13.2326C8.49487 13.121 8.69324 12.9165 8.80483 12.6189C8.92881 12.3214 8.9908 11.906 8.9908 11.3729C8.9908 10.8274 8.92881 10.4058 8.80483 10.1082C8.69324 9.81069 8.49487 9.60612 8.20971 9.49453C7.93694 9.37055 7.55259 9.30856 7.05666 9.30856C5.91601 9.30856 4.93654 9.31476 4.11825 9.32715C3.29996 9.33955 2.74823 9.36435 2.46307 9.40154L2.18411 7.35582C2.70484 7.29382 3.19457 7.25043 3.65331 7.22563C4.11205 7.20084 4.60799 7.18844 5.14112 7.18844C5.68664 7.17604 6.34376 7.16984 7.11245 7.16984ZM5.02953 7.35582V20.1881H2.18411V7.35582H5.02953ZM16.4887 7.35582V16.9521C16.4887 17.2621 16.5754 17.4977 16.749 17.6588C16.9226 17.82 17.1706 17.9006 17.4929 17.9006H21.9749L22.1051 20.0393C21.2248 20.1385 20.3012 20.1943 19.3341 20.2067C18.3794 20.2315 17.4247 20.2439 16.4701 20.2439C15.5402 20.2439 14.8335 19.9959 14.3499 19.5C13.8788 18.9917 13.6432 18.347 13.6432 17.5659V7.35582H16.4887ZM29.7884 7.35582C30.0239 7.35582 30.2285 7.42401 30.4021 7.56039C30.5881 7.69677 30.712 7.87655 30.774 8.09972L34.4935 20.1881H31.5923L28.9701 10.7592C28.9205 10.5484 28.8709 10.3376 28.8213 10.1268C28.7717 9.90368 28.7283 9.69291 28.6911 9.49453H28.189C28.1518 9.69291 28.1084 9.90368 28.0588 10.1268C28.0216 10.3376 27.972 10.5484 27.91 10.7592L25.2878 20.1881H22.3679L26.106 8.09972C26.168 7.87655 26.2858 7.69677 26.4594 7.56039C26.6454 7.42401 26.8561 7.35582 27.0917 7.35582H29.7884ZM31.7597 14.6646V16.8034H25.1018V14.6646H31.7597ZM44.7915 7.35582L40.4583 16.1153H37.7802L33.4284 7.35582H36.3854L38.5427 12.0796C38.6543 12.3276 38.7473 12.5941 38.8217 12.8793C38.8961 13.1644 38.9643 13.4372 39.0262 13.6976H39.2122C39.2866 13.4372 39.361 13.1644 39.4354 12.8793C39.5098 12.5941 39.5966 12.3276 39.6958 12.0796L41.8345 7.35582H44.7915ZM40.5326 14.3857V20.1881H37.6872V14.3857H40.5326ZM60.4651 7.35582V19.1652C60.4651 19.8472 60.1242 20.1881 59.4423 20.1881H57.8801C57.5701 20.1881 57.3345 20.1199 57.1734 19.9835C57.0122 19.8348 56.8634 19.6178 56.727 19.3326L53.1749 12.6003C53.0261 12.3152 52.8773 11.999 52.7286 11.6518C52.5922 11.3047 52.4744 10.9699 52.3752 10.6476H52.1706C52.2078 10.9823 52.2388 11.3233 52.2636 11.6704C52.2884 12.0052 52.3008 12.34 52.3008 12.6747V20.1881H49.6042V8.37868C49.6042 7.69677 49.9513 7.35582 50.6456 7.35582H52.1892C52.4868 7.35582 52.71 7.43021 52.8587 7.57899C53.0199 7.71537 53.1749 7.92614 53.3237 8.2113L56.7642 14.739C56.913 15.0242 57.068 15.3404 57.2292 15.6875C57.3903 16.0347 57.5453 16.3942 57.6941 16.7662H57.9173C57.8801 16.3942 57.8491 16.0347 57.8243 15.6875C57.8119 15.328 57.8057 14.9746 57.8057 14.6274L57.7871 7.35582H60.4651ZM68.1399 7.09545C69.1566 7.09545 70.0183 7.20704 70.725 7.43021C71.4317 7.64098 71.9958 8.00053 72.4174 8.50886C72.8513 9.0048 73.1675 9.68671 73.3659 10.5546C73.5642 11.4101 73.6634 12.4825 73.6634 13.772C73.6634 15.0614 73.5642 16.14 73.3659 17.0079C73.1675 17.8634 72.8513 18.5453 72.4174 19.0537C71.9958 19.5496 71.4317 19.9091 70.725 20.1323C70.0183 20.3431 69.1566 20.4485 68.1399 20.4485C67.1233 20.4485 66.2616 20.3431 65.5549 20.1323C64.8482 19.9091 64.2779 19.5496 63.8439 19.0537C63.41 18.5453 63.0938 17.8634 62.8954 17.0079C62.6971 16.14 62.5979 15.0614 62.5979 13.772C62.5979 12.4825 62.6971 11.4101 62.8954 10.5546C63.0938 9.68671 63.41 9.0048 63.8439 8.50886C64.2779 8.00053 64.8482 7.64098 65.5549 7.43021C66.2616 7.20704 67.1233 7.09545 68.1399 7.09545ZM68.1399 9.34575C67.4828 9.34575 66.9683 9.47593 66.5964 9.7363C66.2368 9.99667 65.9764 10.4492 65.8153 11.0939C65.6665 11.7262 65.5921 12.6189 65.5921 13.772C65.5921 14.9126 65.6665 15.8053 65.8153 16.45C65.9764 17.0947 66.2368 17.5473 66.5964 17.8076C66.9683 18.068 67.4828 18.1982 68.1399 18.1982C68.7847 18.1982 69.2868 18.068 69.6463 17.8076C70.0183 17.5473 70.2787 17.0947 70.4274 16.45C70.5886 15.8053 70.6692 14.9126 70.6692 13.772C70.6692 12.6189 70.5886 11.7262 70.4274 11.0939C70.2787 10.4492 70.0183 9.99667 69.6463 9.7363C69.2868 9.47593 68.7847 9.34575 68.1399 9.34575ZM92.1595 7.35582L90.058 19.407C90.0208 19.6302 89.9092 19.8162 89.7233 19.9649C89.5373 20.1137 89.3141 20.1881 89.0537 20.1881H86.3943C86.1463 20.1881 85.9232 20.1137 85.7248 19.9649C85.5388 19.8162 85.4272 19.624 85.39 19.3884L83.958 11.0381C83.9208 10.753 83.8836 10.474 83.8464 10.2012C83.8092 9.91608 83.772 9.63711 83.7348 9.36435H83.3815C83.3567 9.63711 83.3257 9.91608 83.2885 10.2012C83.2513 10.4864 83.2141 10.7654 83.1769 11.0381L81.7449 19.3884C81.7077 19.624 81.5899 19.8162 81.3916 19.9649C81.2056 20.1137 80.9886 20.1881 80.7406 20.1881H78.0626C77.8146 20.1881 77.5915 20.1137 77.3931 19.9649C77.2071 19.8162 77.0955 19.6302 77.0583 19.407L74.9568 7.35582H77.8208L79.1599 16.2826C79.197 16.5554 79.228 16.8468 79.2528 17.1567C79.2776 17.4667 79.3024 17.7952 79.3272 18.1424H79.6806C79.7302 17.8448 79.7798 17.5349 79.8294 17.2125C79.8914 16.8778 79.941 16.5678 79.9781 16.2826L81.3916 8.2299C81.4288 7.96953 81.5403 7.75876 81.7263 7.59758C81.9123 7.43641 82.1355 7.35582 82.3958 7.35582H84.7391C84.9995 7.35582 85.2164 7.43641 85.39 7.59758C85.576 7.75876 85.6876 7.96953 85.7248 8.2299L87.1568 16.3012C87.2064 16.5988 87.256 16.9087 87.3056 17.2311C87.3552 17.5411 87.3986 17.8448 87.4358 18.1424H87.8077C87.8325 17.8448 87.8573 17.5349 87.8821 17.2125C87.9193 16.8901 87.9503 16.5926 87.9751 16.3198L89.2955 7.35582H92.1595Z" fill="#F2A200"/>
</svg>
