<svg width="25" height="48" viewBox="0 0 25 48" fill="none" xmlns="http://www.w3.org/2000/svg">
<path d="M23.1324 1.25828C23.6948 1.89471 24.0108 2.75778 24.0108 3.65769C24.0108 4.5576 23.6948 5.42067 23.1324 6.05711L7.25255 24.0205L23.1324 41.9838C23.6789 42.6239 23.9813 43.4812 23.9745 44.3711C23.9676 45.2609 23.6521 46.1121 23.0958 46.7413C22.5396 47.3706 21.7871 47.7275 21.0005 47.7352C20.2139 47.743 19.456 47.4009 18.8902 46.7827L0.88921 26.4199C0.326767 25.7835 0.0108032 24.9204 0.0108032 24.0205C0.0108032 23.1206 0.326767 22.2575 0.88921 21.6211L18.8902 1.25828C19.4528 0.622038 20.2157 0.264618 21.0113 0.264618C21.8068 0.264618 22.5698 0.622038 23.1324 1.25828Z" fill="white"/>
</svg>
