<svg width="25" height="48" viewBox="0 0 25 48" fill="none" xmlns="http://www.w3.org/2000/svg">
<path d="M1.13085 1.00474C0.568405 1.64826 0.252441 2.52096 0.252441 3.4309C0.252441 4.34085 0.568405 5.21354 1.13085 5.85707L17.0107 24.0207L1.13085 42.1844C0.584345 42.8316 0.281946 43.6984 0.288782 44.5982C0.295616 45.4979 0.611139 46.3586 1.16739 46.9949C1.72365 47.6311 2.47613 47.9921 3.26276 47.9999C4.04939 48.0077 4.80724 47.6618 5.37307 47.0367L23.374 26.4469C23.9365 25.8034 24.2524 24.9307 24.2524 24.0207C24.2524 23.1108 23.9365 22.2381 23.374 21.5946L5.37307 1.00474C4.81046 0.361405 4.04749 0 3.25196 0C2.45643 0 1.69346 0.361405 1.13085 1.00474Z" fill="white"/>
</svg>
